<svg width="128" height="128" viewBox="0 0 128 128" fill="none" xmlns="http://www.w3.org/2000/svg" role="img" aria-label="Dense Freezing Drizzle day icon">
  <defs>
    <linearGradient id="sunGrad" x1="36" y1="22" x2="78" y2="72" gradientUnits="userSpaceOnUse">
      <stop stop-color="#FFE066"/>
      <stop offset="1" stop-color="#FFB703"/>
    </linearGradient>
    <linearGradient id="moonGrad" x1="38" y1="20" x2="72" y2="70" gradientUnits="userSpaceOnUse">
      <stop stop-color="#F8FAFC"/>
      <stop offset="1" stop-color="#CBD5E1"/>
    </linearGradient>
    <linearGradient id="cloudLight" x1="25" y1="43" x2="103" y2="94" gradientUnits="userSpaceOnUse">
      <stop stop-color="#F8FAFC"/>
      <stop offset="1" stop-color="#CBD5E1"/>
    </linearGradient>
    <linearGradient id="cloudDark" x1="25" y1="43" x2="103" y2="94" gradientUnits="userSpaceOnUse">
      <stop stop-color="#94A3B8"/>
      <stop offset="1" stop-color="#475569"/>
    </linearGradient>
    <linearGradient id="rainGrad" x1="0" y1="0" x2="0" y2="20" gradientUnits="userSpaceOnUse">
      <stop stop-color="#7DD3FC"/>
      <stop offset="1" stop-color="#0284C7"/>
    </linearGradient>
    <linearGradient id="snowGrad" x1="0" y1="0" x2="0" y2="20" gradientUnits="userSpaceOnUse">
      <stop stop-color="#E0F2FE"/>
      <stop offset="1" stop-color="#38BDF8"/>
    </linearGradient>
  </defs>
  <rect width="128" height="128" fill="none"/>

  <path d="M35 85H94C104 85 112 77 112 67C112 58 105 51 96 51C93 36 80 26 64 26C48 26 35 37 32 51C22 52 15 60 15 70C15 79 25 85 35 85Z" fill="url(#cloudLight)" opacity="0.95"/>

<path d="M34 91C29 99 29 106 34 109C39 106 39 99 34 91Z" fill="url(#rainGrad)"/>
  <path d="M49 102C44 110 44 117 49 120C54 117 54 110 49 102Z" fill="url(#rainGrad)"/>
  <path d="M64 91C59 99 59 106 64 109C69 106 69 99 64 91Z" fill="url(#rainGrad)"/>
  <path d="M79 102C74 110 74 117 79 120C84 117 84 110 79 102Z" fill="url(#rainGrad)"/>
  <path d="M94 91C89 99 89 106 94 109C99 106 99 99 94 91Z" fill="url(#rainGrad)"/>

  <g transform="translate(42 93) scale(0.75)" stroke="url(#snowGrad)" stroke-width="3" stroke-linecap="round">
    <path d="M0 -8V8"/>
    <path d="M-7 -4L7 4"/>
    <path d="M7 -4L-7 4"/>
  </g>

  <g transform="translate(64 105) scale(0.75)" stroke="url(#snowGrad)" stroke-width="3" stroke-linecap="round">
    <path d="M0 -8V8"/>
    <path d="M-7 -4L7 4"/>
    <path d="M7 -4L-7 4"/>
  </g>

  <g transform="translate(86 93) scale(0.75)" stroke="url(#snowGrad)" stroke-width="3" stroke-linecap="round">
    <path d="M0 -8V8"/>
    <path d="M-7 -4L7 4"/>
    <path d="M7 -4L-7 4"/>
  </g>
</svg>
